<?xml version="1.0" encoding="UTF-8" standalone="no"?>
<svg
   xmlns:dc="http://purl.org/dc/elements/1.1/"
   xmlns:cc="http://creativecommons.org/ns#"
   xmlns:rdf="http://www.w3.org/1999/02/22-rdf-syntax-ns#"
   xmlns:svg="http://www.w3.org/2000/svg"
   xmlns="http://www.w3.org/2000/svg"
   xmlns:sodipodi="http://sodipodi.sourceforge.net/DTD/sodipodi-0.dtd"
   xmlns:inkscape="http://www.inkscape.org/namespaces/inkscape"
   version="1.1"
   viewBox="0 0 622.21582 502.21286"
   stroke-miterlimit="10"
   id="svg73"
   sodipodi:docname="starepandas.svg"
   width="622.21582"
   height="502.21286"
   style="fill:none;stroke:none;stroke-linecap:square;stroke-miterlimit:10"
   inkscape:version="0.92.5 (2060ec1f9f, 2020-04-08)"
   inkscape:export-filename="/home/griessbaum/Dropbox/UCSB/STARE_Project/STAREPandas/figures/path5.png"
   inkscape:export-xdpi="96"
   inkscape:export-ydpi="96">
  <metadata
     id="metadata79">
    <rdf:RDF>
      <cc:Work
         rdf:about="">
        <dc:format>image/svg+xml</dc:format>
        <dc:type
           rdf:resource="http://purl.org/dc/dcmitype/StillImage" />
        <dc:title></dc:title>
      </cc:Work>
    </rdf:RDF>
  </metadata>
  <defs
     id="defs77" />
  <sodipodi:namedview
     pagecolor="#ffffff"
     bordercolor="#666666"
     borderopacity="1"
     objecttolerance="10"
     gridtolerance="10"
     guidetolerance="10"
     inkscape:pageopacity="0"
     inkscape:pageshadow="2"
     inkscape:window-width="1920"
     inkscape:window-height="1015"
     id="namedview75"
     showgrid="false"
     fit-margin-top="0"
     fit-margin-left="0"
     fit-margin-right="0"
     fit-margin-bottom="0"
     inkscape:zoom="0.29479167"
     inkscape:cx="866.9881"
     inkscape:cy="248.53719"
     inkscape:window-x="0"
     inkscape:window-y="0"
     inkscape:window-maximized="1"
     inkscape:current-layer="g71" />
  <clipPath
     id="p.0">
    <path
       d="M 0,0 H 960 V 540 H 0 Z"
       id="path2"
       inkscape:connector-curvature="0"
       style="clip-rule:nonzero" />
  </clipPath>
  <g
     clip-path="url(#p.0)"
     id="g71"
     transform="translate(-25.167376,-16.324336)">
    <path
       d="m 514.1083,205.22177 v 0 c 19.23962,-19.23964 62.51025,-7.16258 96.6477,26.97485 v 0 c 34.13745,34.13742 46.21448,77.40808 26.97486,96.64774 v 0 c -19.23963,19.23962 -62.51032,7.16257 -96.64771,-26.97488 v 0 C 506.9457,267.73206 494.86865,224.4614 514.1083,205.22177 Z"
       id="path7"
       inkscape:connector-curvature="0"
       style="fill:#000000;fill-rule:evenodd" />
    <path
       d="m 514.1083,205.22177 v 0 c 19.23962,-19.23964 62.51025,-7.16258 96.6477,26.97485 v 0 c 34.13745,34.13742 46.21448,77.40808 26.97486,96.64774 v 0 c -19.23963,19.23962 -62.51032,7.16257 -96.64771,-26.97488 v 0 C 506.9457,267.73206 494.86865,224.4614 514.1083,205.22177 Z"
       id="path9"
       inkscape:connector-curvature="0"
       style="fill-rule:evenodd;stroke:#595959;stroke-width:1;stroke-linecap:butt;stroke-linejoin:round" />
    <path
       d="m 34.819736,318.37 v 0 C 15.580104,299.13035 27.657157,255.8597 61.794593,221.72226 v 0 c 34.13743,-34.13743 77.408087,-46.21449 96.647727,-26.97485 v 0 c 19.23963,19.23962 7.16257,62.51028 -26.97485,96.64774 v 0 C 97.330025,325.53257 54.059369,337.60962 34.819733,318.37 Z"
       id="path11"
       inkscape:connector-curvature="0"
       style="fill:#000000;fill-rule:evenodd" />
    <path
       d="m 34.819736,318.37 v 0 C 15.580104,299.13035 27.657157,255.8597 61.794593,221.72226 v 0 c 34.13743,-34.13743 77.408087,-46.21449 96.647727,-26.97485 v 0 c 19.23963,19.23962 7.16257,62.51028 -26.97485,96.64774 v 0 C 97.330025,325.53257 54.059369,337.60962 34.819733,318.37 Z"
       id="path13"
       inkscape:connector-curvature="0"
       style="fill-rule:evenodd;stroke:#595959;stroke-width:1;stroke-linecap:butt;stroke-linejoin:round" />
    <path
       d="m 145.23048,85.804405 v 0 c -9.86194,-16.076065 2.85626,-41.800323 28.40689,-57.456734 v 0 c 25.55061,-15.656412 54.25815,-15.316214 64.12007,0.759855 v 0 c 9.86192,16.076069 -2.85626,41.800327 -28.40689,57.456738 v 0 C 183.79994,102.22067 155.0924,101.88048 145.23048,85.804407 Z"
       id="path15"
       inkscape:connector-curvature="0"
       style="fill:#000000;fill-rule:evenodd" />
    <path
       d="m 145.23048,85.804405 v 0 c -9.86194,-16.076065 2.85626,-41.800323 28.40689,-57.456734 v 0 c 25.55061,-15.656412 54.25815,-15.316214 64.12007,0.759855 v 0 c 9.86192,16.076069 -2.85626,41.800327 -28.40689,57.456738 v 0 C 183.79994,102.22067 155.0924,101.88048 145.23048,85.804407 Z"
       id="path17"
       inkscape:connector-curvature="0"
       style="fill-rule:evenodd;stroke:#595959;stroke-width:1;stroke-linecap:butt;stroke-linejoin:round" />
    <path
       d="m 425.18594,33.693882 v 0 c 8.24786,-16.963802 36.35352,-20.287281 62.77573,-7.423199 v 0 c 26.42224,12.864082 41.15545,37.04436 32.90759,54.008163 v 0 c -8.24787,16.963806 -36.35355,20.287284 -62.77576,7.423203 v 0 C 431.67129,74.837967 416.93808,50.657684 425.18594,33.693882 Z"
       id="path19"
       inkscape:connector-curvature="0"
       style="fill:#000000;fill-rule:evenodd" />
    <path
       d="m 425.18594,33.693882 v 0 c 8.24786,-16.963802 36.35352,-20.287281 62.77573,-7.423199 v 0 c 26.42224,12.864082 41.15545,37.04436 32.90759,54.008163 v 0 c -8.24787,16.963806 -36.35355,20.287284 -62.77576,7.423203 v 0 C 431.67129,74.837967 416.93808,50.657684 425.18594,33.693882 Z"
       id="path21"
       inkscape:connector-curvature="0"
       style="fill-rule:evenodd;stroke:#595959;stroke-width:1;stroke-linecap:butt;stroke-linejoin:round" />
    <path
       d="m 63.632477,313.15225 v 0 c 0,-89.17697 118.637763,-161.46921 264.984863,-161.46921 v 0 c 146.3471,0 264.98483,72.29224 264.98483,161.46921 v 0 c 0,89.177 -118.63773,161.46924 -264.98483,161.46924 v 0 c -146.3471,0 -264.984863,-72.29224 -264.984863,-161.46924 z"
       id="path23"
       inkscape:connector-curvature="0"
       style="fill:#eeeeee;fill-rule:evenodd" />
    <path
       d="m 63.632477,313.15225 v 0 c 0,-89.17697 118.637763,-161.46921 264.984863,-161.46921 v 0 c 146.3471,0 264.98483,72.29224 264.98483,161.46921 v 0 c 0,89.177 -118.63773,161.46924 -264.98483,161.46924 v 0 c -146.3471,0 -264.984863,-72.29224 -264.984863,-161.46924 z"
       id="path25"
       inkscape:connector-curvature="0"
       style="fill-rule:evenodd;stroke:#595959;stroke-width:1;stroke-linecap:butt;stroke-linejoin:round" />
    <path
       d="m 145.53287,144.69933 v 0 c 0,-54.555336 86.97311,-98.781166 194.25989,-98.781166 v 0 c 107.28677,0 194.25986,44.22583 194.25986,98.781166 v 0 c 0,54.55533 -86.97308,98.78116 -194.25986,98.78116 v 0 c -107.28677,0 -194.25989,-44.22583 -194.25989,-98.78116 z"
       id="path27"
       inkscape:connector-curvature="0"
       style="fill:#eeeeee;fill-rule:evenodd" />
    <path
       d="m 145.53287,144.69933 v 0 c 0,-54.555336 86.97311,-98.781166 194.25989,-98.781166 v 0 c 107.28677,0 194.25986,44.22583 194.25986,98.781166 v 0 c 0,54.55533 -86.97308,98.78116 -194.25986,98.78116 v 0 c -107.28677,0 -194.25989,-44.22583 -194.25989,-98.78116 z"
       id="path29"
       inkscape:connector-curvature="0"
       style="fill-rule:evenodd;stroke:#595959;stroke-width:1;stroke-linecap:butt;stroke-linejoin:round" />
    <path
       d="m 226.73787,167.03543 v 0 c -9.26473,-9.26473 0.0646,-33.6151 20.83757,-54.38808 v 0 c 20.77298,-20.772999 45.12338,-30.102291 54.38809,-20.837574 v 0 c 9.26471,9.264724 -0.0646,33.615104 -20.83755,54.388104 v 0 c -20.77301,20.77298 -45.12339,30.10228 -54.38811,20.83755 z"
       id="path31"
       inkscape:connector-curvature="0"
       style="fill:#000000;fill-rule:evenodd" />
    <path
       d="m 226.73787,167.03543 v 0 c -9.26473,-9.26473 0.0646,-33.6151 20.83757,-54.38808 v 0 c 20.77298,-20.772999 45.12338,-30.102291 54.38809,-20.837574 v 0 c 9.26471,9.264724 -0.0646,33.615104 -20.83755,54.388104 v 0 c -20.77301,20.77298 -45.12339,30.10228 -54.38811,20.83755 z"
       id="path33"
       inkscape:connector-curvature="0"
       style="fill-rule:evenodd;stroke:#595959;stroke-width:1;stroke-linecap:butt;stroke-linejoin:round" />
    <path
       d="m 367.05896,129.39224 v 0 c 0,-13.09006 23.827,-23.70164 53.21909,-23.70164 v 0 c 29.39209,0 53.21908,10.61158 53.21908,23.70164 v 0 c 0,13.09004 -23.82699,23.70163 -53.21908,23.70163 v 0 c -29.39209,0 -53.21909,-10.61159 -53.21909,-23.70163 z"
       id="path35"
       inkscape:connector-curvature="0"
       style="fill:#000000;fill-rule:evenodd" />
    <path
       d="m 367.05896,129.39224 v 0 c 0,-13.09006 23.827,-23.70164 53.21909,-23.70164 v 0 c 29.39209,0 53.21908,10.61158 53.21908,23.70164 v 0 c 0,13.09004 -23.82699,23.70163 -53.21908,23.70163 v 0 c -29.39209,0 -53.21909,-10.61159 -53.21909,-23.70163 z"
       id="path37"
       inkscape:connector-curvature="0"
       style="fill-rule:evenodd;stroke:#595959;stroke-width:1;stroke-linecap:butt;stroke-linejoin:round" />
    <path
       d="m 140.32545,500.08395 v 0 c -19.23963,-19.23962 -17.9966,-51.67627 2.7764,-72.44928 v 0 c 20.77299,-20.77298 53.20962,-22.01602 72.44926,-2.77637 v 0 c 19.23963,19.23963 17.9966,51.67627 -2.7764,72.44925 v 0 c -20.77299,20.77301 -53.20962,22.01605 -72.44926,2.7764 z"
       id="path39"
       inkscape:connector-curvature="0"
       style="fill:#000000;fill-rule:evenodd" />
    <path
       d="m 140.32545,500.08395 v 0 c -19.23963,-19.23962 -17.9966,-51.67627 2.7764,-72.44928 v 0 c 20.77299,-20.77298 53.20962,-22.01602 72.44926,-2.77637 v 0 c 19.23963,19.23963 17.9966,51.67627 -2.7764,72.44925 v 0 c -20.77299,20.77301 -53.20962,22.01605 -72.44926,2.7764 z"
       id="path41"
       inkscape:connector-curvature="0"
       style="fill-rule:evenodd;stroke:#595959;stroke-width:1;stroke-linecap:butt;stroke-linejoin:round" />
    <path
       d="m 430.81448,504.38535 v 0 c -19.23962,-19.23962 -17.99661,-51.67627 2.7764,-72.44925 v 0 c 20.77298,-20.77301 53.20962,-22.01605 72.44925,-2.7764 v 0 c 19.23965,19.23963 17.99661,51.67627 -2.7764,72.44925 v 0 c -20.77298,20.77301 -53.20963,22.01605 -72.44925,2.7764 z"
       id="path43"
       inkscape:connector-curvature="0"
       style="fill:#000000;fill-rule:evenodd" />
    <path
       d="m 430.81448,504.38535 v 0 c -19.23962,-19.23962 -17.99661,-51.67627 2.7764,-72.44925 v 0 c 20.77298,-20.77301 53.20962,-22.01605 72.44925,-2.7764 v 0 c 19.23965,19.23963 17.99661,51.67627 -2.7764,72.44925 v 0 c -20.77298,20.77301 -53.20963,22.01605 -72.44925,2.7764 z"
       id="path45"
       inkscape:connector-curvature="0"
       style="fill-rule:evenodd;stroke:#595959;stroke-width:1;stroke-linecap:butt;stroke-linejoin:round" />
    <path
       d="m 286.59238,209.13449 v 0 c 0,-4.79378 23.827,-8.67989 53.21909,-8.67989 v 0 c 29.39209,0 53.21908,3.88611 53.21908,8.67989 v 0 c 0,4.79376 -23.82699,8.67989 -53.21908,8.67989 v 0 c -29.39209,0 -53.21909,-3.88613 -53.21909,-8.67989 z"
       id="path47"
       inkscape:connector-curvature="0"
       style="fill:#000000;fill-rule:evenodd" />
    <path
       d="m 286.59238,209.13449 v 0 c 0,-4.79378 23.827,-8.67989 53.21909,-8.67989 v 0 c 29.39209,0 53.21908,3.88611 53.21908,8.67989 v 0 c 0,4.79376 -23.82699,8.67989 -53.21908,8.67989 v 0 c -29.39209,0 -53.21909,-3.88613 -53.21909,-8.67989 z"
       id="path49"
       inkscape:connector-curvature="0"
       style="fill-rule:evenodd;stroke:#595959;stroke-width:1;stroke-linecap:butt;stroke-linejoin:round" />
    <path
       d="m 333.26855,166.96284 v 0 c 0,-4.79376 4.82819,-8.67989 10.78409,-8.67989 v 0 c 5.9559,0 10.78409,3.88613 10.78409,8.67989 v 0 c 0,4.79378 -4.82819,8.67989 -10.78409,8.67989 v 0 c -5.9559,0 -10.78409,-3.88611 -10.78409,-8.67989 z"
       id="path51"
       inkscape:connector-curvature="0"
       style="fill:#000000;fill-rule:evenodd" />
    <path
       d="m 333.26855,166.96284 v 0 c 0,-4.79376 4.82819,-8.67989 10.78409,-8.67989 v 0 c 5.9559,0 10.78409,3.88613 10.78409,8.67989 v 0 c 0,4.79378 -4.82819,8.67989 -10.78409,8.67989 v 0 c -5.9559,0 -10.78409,-3.88611 -10.78409,-8.67989 z"
       id="path53"
       inkscape:connector-curvature="0"
       style="fill-rule:evenodd;stroke:#595959;stroke-width:1;stroke-linecap:butt;stroke-linejoin:round" />
    <path
       d="m 249.5712,140.71892 v 0 c -4.82605,-6.76292 -1.20163,-17.6362 8.09537,-24.28614 v 0 c 9.29699,-6.64994 20.746,-6.55835 25.57205,0.20457 v 0 c 4.82605,6.76293 1.20163,17.63621 -8.09537,24.28614 v 0 c -9.297,6.64995 -20.746,6.55835 -25.57205,-0.20457 z"
       id="path55"
       inkscape:connector-curvature="0"
       style="fill:#eeeeee;fill-rule:evenodd" />
    <path
       d="m 249.5712,140.71892 v 0 c -4.82605,-6.76292 -1.20163,-17.6362 8.09537,-24.28614 v 0 c 9.29699,-6.64994 20.746,-6.55835 25.57205,0.20457 v 0 c 4.82605,6.76293 1.20163,17.63621 -8.09537,24.28614 v 0 c -9.297,6.64995 -20.746,6.55835 -25.57205,-0.20457 z"
       id="path57"
       inkscape:connector-curvature="0"
       style="fill-rule:evenodd;stroke:#595959;stroke-width:1;stroke-linecap:butt;stroke-linejoin:round" />
    <path
       d="m 405.23212,129.34778 v 0 c 0,-4.79376 9.26385,-8.67988 20.69144,-8.67988 v 0 c 11.42755,0 20.69143,3.88612 20.69143,8.67988 v 0 c 0,4.79376 -9.26388,8.67989 -20.69143,8.67989 v 0 c -11.42758,0 -20.69144,-3.88613 -20.69144,-8.67989 z"
       id="path59"
       inkscape:connector-curvature="0"
       style="fill:#eeeeee;fill-rule:evenodd" />
    <path
       d="m 405.23212,129.34778 v 0 c 0,-4.79376 9.26385,-8.67988 20.69144,-8.67988 v 0 c 11.42755,0 20.69143,3.88612 20.69143,8.67988 v 0 c 0,4.79376 -9.26388,8.67989 -20.69143,8.67989 v 0 c -11.42758,0 -20.69144,-3.88613 -20.69144,-8.67989 z"
       id="path61"
       inkscape:connector-curvature="0"
       style="fill-rule:evenodd;stroke:#595959;stroke-width:1;stroke-linecap:butt;stroke-linejoin:round" />
    <path
       d="m 157.92712,466.5165 v 0 c 0,-7.24713 7.91617,-13.1221 17.68124,-13.1221 v 0 c 9.76509,0 17.68125,5.87497 17.68125,13.1221 v 0 c 0,7.24713 -7.91616,13.1221 -17.68125,13.1221 v 0 c -9.76507,0 -17.68124,-5.87497 -17.68124,-13.1221 z"
       id="path63"
       inkscape:connector-curvature="0"
       style="fill:#eeeeee;fill-rule:evenodd" />
    <path
       d="m 157.92712,466.5165 v 0 c 0,-7.24713 7.91617,-13.1221 17.68124,-13.1221 v 0 c 9.76509,0 17.68125,5.87497 17.68125,13.1221 v 0 c 0,7.24713 -7.91616,13.1221 -17.68125,13.1221 v 0 c -9.76507,0 -17.68124,-5.87497 -17.68124,-13.1221 z"
       id="path65"
       inkscape:connector-curvature="0"
       style="fill-rule:evenodd;stroke:#595959;stroke-width:1;stroke-linecap:butt;stroke-linejoin:round" />
    <path
       d="m 455.35236,466.75302 v 0 c 0,-7.24716 7.91617,-13.12213 17.68124,-13.12213 v 0 c 9.76508,0 17.68125,5.87497 17.68125,13.12213 v 0 c 0,7.24713 -7.91617,13.1221 -17.68125,13.1221 v 0 c -9.76507,0 -17.68124,-5.87497 -17.68124,-13.1221 z"
       id="path67"
       inkscape:connector-curvature="0"
       style="fill:#eeeeee;fill-rule:evenodd" />
    <path
       d="m 455.35236,466.75302 v 0 c 0,-7.24716 7.91617,-13.12213 17.68124,-13.12213 v 0 c 9.76508,0 17.68125,5.87497 17.68125,13.12213 v 0 c 0,7.24713 -7.91617,13.1221 -17.68125,13.1221 v 0 c -9.76507,0 -17.68124,-5.87497 -17.68124,-13.1221 z"
       id="path69"
       inkscape:connector-curvature="0"
       style="fill-rule:evenodd;stroke:#595959;stroke-width:1;stroke-linecap:butt;stroke-linejoin:round" />
  </g>
</svg>
